<svg xmlns="http://www.w3.org/2000/svg" xmlns:xlink="http://www.w3.org/1999/xlink" version="1.1" x="0px" y="0px" viewBox="0 0 100 125" enable-background="new 0 0 100 100" xml:space="preserve"><g><path d="M92.5,25H73.8v-2l2.1-2.1c0.3-0.3,0.4-0.7,0.4-1.1s-0.3-0.7-0.7-0.9c-3.4-1.7-7.7-1.7-11.1,0c-0.4,0.2-0.6,0.5-0.7,0.9   s0.1,0.8,0.4,1.1l2.1,2.1v2H33.8v-2l2.1-2.1c0.3-0.3,0.4-0.7,0.4-1.1s-0.3-0.7-0.7-0.9c-3.4-1.7-7.7-1.7-11.1,0   c-0.4,0.2-0.6,0.5-0.7,0.9s0.1,0.8,0.4,1.1l2.1,2.1v2H7.5C6.1,25,5,26.1,5,27.5v45C5,73.9,6.1,75,7.5,75h5v5c0,1.4,1.1,2.5,2.5,2.5   h10c1.4,0,2.5-1.1,2.5-2.5v-5h45v5c0,1.4,1.1,2.5,2.5,2.5h10c1.4,0,2.5-1.1,2.5-2.5v-5h5c1.4,0,2.5-1.1,2.5-2.5v-45   C95,26.1,93.9,25,92.5,25z M72.8,20.5l-1.2,1.2c-0.2,0.2-0.4,0.6-0.4,0.9V25h-2.5v-2.5c0-0.3-0.1-0.6-0.4-0.9l-1.2-1.2   C69,19.9,71,19.9,72.8,20.5z M32.8,20.5l-1.2,1.2c-0.2,0.2-0.4,0.6-0.4,0.9V25h-2.5v-2.5c0-0.3-0.1-0.6-0.4-0.9l-1.2-1.2   C29,19.9,31,19.9,32.8,20.5z M22.5,77.5h-5V75h5V77.5z M82.5,77.5h-5V75h5V77.5z M90,70h-5H75H25H15h-5V30h80V70z"/><path d="M21.9,64.1c2.5,1.4,5.3,2.2,8.1,2.2c5.8,0,11.2-3.1,14.1-8.1c4.5-7.8,1.8-17.7-5.9-22.2c-2.5-1.4-5.3-2.2-8.1-2.2   c-5.8,0-11.2,3.1-14.1,8.1C11.4,49.6,14.1,59.6,21.9,64.1z M18.1,43.1c2.4-4.2,7-6.9,11.9-6.9c2.4,0,4.8,0.6,6.9,1.8   c3.2,1.8,5.5,4.8,6.4,8.3c1,3.5,0.5,7.3-1.4,10.4c-2.4,4.2-7,6.9-11.9,6.9c-2.4,0-4.8-0.6-6.9-1.8c-3.2-1.8-5.5-4.8-6.4-8.3   C15.8,50,16.3,46.3,18.1,43.1z"/><path d="M70,66.3c9,0,16.3-7.3,16.3-16.3S79,33.8,70,33.8S53.8,41,53.8,50S61,66.3,70,66.3z M70,36.3c7.6,0,13.8,6.2,13.8,13.8   S77.6,63.8,70,63.8S56.3,57.6,56.3,50S62.4,36.3,70,36.3z"/><path d="M27.7,51.5c-0.3,0.6-0.1,1.4,0.5,1.7c0.2,0.1,0.4,0.2,0.6,0.2c0.4,0,0.9-0.2,1.1-0.6l0.2-0.3c0.9,0,1.7-0.4,2.2-1.2   c0.5-0.8,0.4-1.7,0-2.5l3.9-6.8c0.3-0.6,0.1-1.4-0.5-1.7c-0.6-0.3-1.4-0.1-1.7,0.5L30,47.5c-0.9,0-1.7,0.4-2.2,1.2s-0.4,1.7,0,2.5   L27.7,51.5z"/><path d="M68.8,52.2v0.3c0,0.7,0.6,1.3,1.3,1.3s1.3-0.6,1.3-1.3v-0.3c0.7-0.4,1.3-1.2,1.3-2.2c0-0.9-0.5-1.7-1.3-2.2V40   c0-0.7-0.6-1.3-1.3-1.3s-1.3,0.6-1.3,1.3v7.8c-0.7,0.4-1.3,1.2-1.3,2.2C67.5,50.9,68,51.7,68.8,52.2z"/></g><text x="0" y="115" fill="#000000" font-size="5px" font-weight="bold" font-family="'Helvetica Neue', Helvetica, Arial-Unicode, Arial, Sans-serif">Created by Arthur Shlain</text><text x="0" y="120" fill="#000000" font-size="5px" font-weight="bold" font-family="'Helvetica Neue', Helvetica, Arial-Unicode, Arial, Sans-serif">from the Noun Project</text></svg>