<?xml version="1.0" encoding="UTF-8" standalone="no"?>
<svg
   xmlns:dc="http://purl.org/dc/elements/1.1/"
   xmlns:cc="http://creativecommons.org/ns#"
   xmlns:rdf="http://www.w3.org/1999/02/22-rdf-syntax-ns#"
   xmlns:svg="http://www.w3.org/2000/svg"
   xmlns="http://www.w3.org/2000/svg"
   xmlns:sodipodi="http://sodipodi.sourceforge.net/DTD/sodipodi-0.dtd"
   xmlns:inkscape="http://www.inkscape.org/namespaces/inkscape"
   height="45.138023"
   width="134.7988"
   inkscape:version="1.0 (4035a4fb49, 2020-05-01)"
   version="1.1"
   viewBox="0 0 134.79879 45.138024"
   sodipodi:docname="red-minus.svg"
   id="svg2">
  <defs
     id="defs4">
    <radialGradient
       r="105.16"
       gradientTransform="matrix(0.96594,0,0,0.96594,1.4801,1.4913)"
       cx="52.408001"
       cy="36.195"
       gradientUnits="userSpaceOnUse"
       id="radialGradient3016">
      <stop
         offset="0"
         stop-color="#d1f593"
         id="stop8" />
      <stop
         offset="1"
         stop-color="#81ce09"
         id="stop10" />
    </radialGradient>
    <radialGradient
       inkscape:collect="always"
       r="105.16"
       gradientTransform="matrix(0.96594,0,0,0.96594,105.7,422.3)"
       cx="52.408001"
       cy="36.195"
       gradientUnits="userSpaceOnUse"
       id="radialGradient3863">
      <stop
         offset="0"
         style="stop-color:#f59393"
         stop-color="#d1f593"
         id="stop3850" />
      <stop
         offset="1"
         style="stop-color:#ce0909"
         stop-color="#81ce09"
         id="stop3852" />
    </radialGradient>
  </defs>
  <sodipodi:namedview
     inkscape:document-rotation="0"
     inkscape:document-units="px"
     inkscape:pageopacity="0.0"
     inkscape:window-width="1920"
     fit-margin-bottom="0"
     fit-margin-right="0"
     inkscape:cy="-233.45615"
     inkscape:cx="-452.77978"
     inkscape:current-layer="layer1"
     borderopacity="1.0"
     showgrid="false"
     inkscape:window-height="1017"
     inkscape:window-x="-8"
     inkscape:zoom="0.50723942"
     inkscape:window-maximized="1"
     fit-margin-top="0"
     pagecolor="#ffffff"
     fit-margin-left="0"
     inkscape:window-y="-8"
     inkscape:pageshadow="2"
     bordercolor="#666666"
     id="base" />
  <g
     transform="translate(-517.67555,-466.93675)"
     inkscape:groupmode="layer"
     inkscape:label="Calque 1"
     id="layer1">
    <g
       transform="translate(413.46,1.3306)"
       id="g3854">
      <path
         inkscape:connector-curvature="0"
         sodipodi:nodetypes="ccssscccccsccccsscccccsccssscssscssscsccssscccsccssccssccs"
         d="m 149.09,465.7 c -8.0331,-0.006 -16.061,-9.1e-4 -24.094,0 -3.7534,0 -8.579,-0.41787 -12.75,0.71875 -2.0855,0.56831 -4.0754,1.582 -5.5,3.3125 -1.4246,1.7305 -2.2187,4.1213 -2.2187,7.1562 0,7.4589 -0.72179,15.466 0.0312,23.188 h -0.0312 c 0,0.0587 0.0305,0.098 0.0312,0.15625 0.0413,3.1259 1.1708,5.6015 3,7.2188 1.8633,1.6474 4.2716,2.455 6.8125,2.875 5.0818,0.84007 10.882,0.15625 14.406,0.15625 1.5049,0 6.7971,-0.27202 11.875,-0.28125 29.448,0.44545 53.633,0.28075 82.75,0.28075 3.123,0 7.0391,0.54753 10.438,-1.75 2.4825,-1.6778 3.688,-4.0393 4.1875,-6.4062 0.49949,-2.367 0.40625,-4.7843 0.40625,-7 0,-3.2548 0.70094,-8.8468 0.5625,-14.219 -0.13844,-5.372 -1.0491,-10.848 -5.1562,-13.625 -3.3932,-2.2975 -7.3099,-1.7812 -10.438,-1.7812 l -29.688,-0.0937 -44.624,0.0938 z m 39.861,3.6961 c 0.90274,0.0524 0.75214,0.34512 1.2634,0.61612 0.51125,0.27098 1.0058,0.39378 1.5938,0.5 1.1758,0.21245 2.6718,0.28402 4.4688,0.3125 3.594,0.057 8.3457,-0.12461 13.25,-0.28125 4.9043,-0.15664 9.9692,-0.296 14.062,-0.125 2.0467,0.0855 3.8563,0.24788 5.25,0.5 1.3937,0.25212 2.3589,0.66146 2.625,0.875 2.0046,1.61 2.8436,6.088 2.8125,11.062 -0.0311,4.9745 -0.75,10.19 -0.75,13.469 0,1.9614 0.0467,3.8584 -0.34375,5.3438 -0.39044,1.4854 -1.051,2.54 -2.75,3.375 -1.933,0.94928 -5.5415,0.5625 -8.5312,0.5625 h -28.75 c -0.85464,0 -1.3285,-0.26318 -2.4375,0 -0.55449,0.13159 -1.2398,0.71288 -1.4688,1.2812 -0.22898,0.56837 -0.25,1.0392 -0.25,1.625 l -34.999,9e-4 c 1.2e-4,-0.83208 -0.85957,0.56623 -1.4542,0.0685 -0.59468,-0.49774 -1.2437,0.51331 -1.9842,0.33146 -1.481,-0.36371 -4.1852,-0.39455 -6.3305,-0.34375 -4.2905,0.10159 -9.9461,-0.47172 -15.469,-0.14381 -5.5229,0.32796 -9.637,-1.9957 -13.512,-2.9125 -1.9376,-0.45839 -3.4628,-1.1676 -4.4063,-2.0312 -0.94345,-0.86364 -1.4075,-1.8359 -1.4062,-3.4062 v -23.188 c 0,-2.2005 0.59392,-3.4666 1.5312,-4.375 0.93733,-0.9084 2.3392,-1.496 4.0938,-1.8125 3.509,-0.63292 8.1232,-0.0937 11.625,-0.0937 h 25.562 c 0.60966,0 1.0238,-0.38905 1.1875,-0.59375 0.16365,-0.2047 0.21082,-0.33618 0.25,-0.4375 0.0784,-0.20263 0.10355,-0.28725 0.125,-0.40625 0.0429,-0.238 0.0403,-0.49322 0.0625,-0.78125 0.0444,-0.57607 0.0568,-0.10182 0.0804,-1.0223 z"
         id="path3031" />
      <path
         inkscape:connector-curvature="0"
         style="fill:url(#radialGradient3863)"
         sodipodi:nodetypes="cccscsccscssc"
         d="m 194.91,508.04 c 9.5927,0 19.187,0 28.782,-0.002 2.9548,0 6.1916,0.38541 8.7794,-1.361 3.9903,-2.6959 3.516,-7.1962 3.516,-11.364 0,-6.4428 2.8601,-21.5 -3.5189,-25.809 -5.5744,-3.7652 -17.14,-0.97931 -23.248,-2.1218 -2.3867,-0.44643 -11.98,0.34897 -17.56,-0.0932 l -40.364,0.8525 h -25.671 c -6.7886,0 -18.644,-1.8739 -18.642,8.3283 0,7.8337 9.7e-4,15.668 9.7e-4,23.502 0,10.271 14.188,8.4454 20.845,8.4454 2.0014,0 23.707,-0.6339 23.707,-0.13452"
         id="path3035" />
      <path
         inkscape:connector-curvature="0"
         style="fill:#ed2121"
         d="m 112.7,472.91 c 2.5172,0 1.3369,27.68 0.7911,30.526 -0.9061,4.723 -3.0176,-8.773 -3.0698,-9.92 -0.0821,-1.842 -0.8712,-20.609 2.2787,-20.606"
         id="path3037" />
      <path
         inkscape:connector-curvature="0"
         style="fill:#ba0606"
         d="m 232.65,472.91 c 2.5163,0 1.3378,27.68 0.79304,30.526 -0.90605,4.7225 -3.0195,-8.7736 -3.0717,-9.9211 -0.0821,-1.842 -0.86837,-20.608 2.2786,-20.605"
         id="path3039" />
      <path
         inkscape:connector-curvature="0"
         style="fill:#ed2121"
         d="m 112.7,472.91 c 0.003,-2.1743 41.166,-1.7377 41.168,9.7e-4 0,1.8594 -41.162,5.389 -41.168,-9.7e-4"
         id="path3045" />
      <path
         inkscape:connector-curvature="0"
         style="fill:#ba0606"
         d="m 136.34,503.21 c -0.004,-1.9039 47.825,-1.218 51.934,-1.218 12.37,0 24.975,-0.25404 37.307,0.31876 6.8297,0.31683 7.4583,1.4151 0.45632,2.098 -6.9674,0.67905 -89.696,3.5295 -89.696,-1.1987"
         id="path3057" />
      <path
         inkscape:connector-curvature="0"
         style="fill:#732323"
         sodipodi:nodetypes="ccsccccscscccsscsscscsccs"
         d="m 150.59,467.2 c -8.5321,-0.008 -17.061,-9.7e-4 -25.594,0 -7.6937,0 -18.969,-1.4459 -18.969,9.6875 0,7.6077 -0.75826,15.62 0,23.188 0,11.514 15.352,8.9062 22.75,8.9062 35.238,0.73616 60.467,0.002 94.626,0.002 3.2523,0 6.7491,0.42318 9.5938,-1.5 4.3119,-2.9142 3.9375,-7.6424 3.9375,-12.156 0,-6.9209 2.8636,-21.995 -3.9375,-26.594 -2.8447,-1.9261 -6.3453,-1.5312 -9.5938,-1.5312 h -28.875 l -43.938,-0.002 z m 39.908,0.96915 c 3.2484,-0.0795 36.676,-1.7292 41.906,2.4688 5.5058,4.4221 2.625,19.6 2.625,25.688 0,3.8715 0.19961,8.0292 -3.9375,10.062 -2.6022,1.2779 -6.3969,0.71875 -9.1875,0.71875 h -28.75 c -16.664,1.7174 -53.899,0.5235 -73.231,0.82767 -11.135,0.1752 -11.758,-5.7678 -11.987,-7.8598 v -23.188 c 0,-10.002 12.077,-7.7812 18.75,-7.7812 h 25.562 z"
         id="path3059" />
    </g>
  </g>
  <metadata
     id="metadata35">
    <rdf:RDF>
      <cc:Work>
        <dc:format>image/svg+xml</dc:format>
        <dc:type
           rdf:resource="http://purl.org/dc/dcmitype/StillImage" />
        <cc:license
           rdf:resource="http://creativecommons.org/licenses/publicdomain/" />
        <dc:publisher>
          <cc:Agent
             rdf:about="http://openclipart.org/">
            <dc:title>Openclipart</dc:title>
          </cc:Agent>
        </dc:publisher>
        <dc:title></dc:title>
      </cc:Work>
      <cc:License
         rdf:about="http://creativecommons.org/licenses/publicdomain/">
        <cc:permits
           rdf:resource="http://creativecommons.org/ns#Reproduction" />
        <cc:permits
           rdf:resource="http://creativecommons.org/ns#Distribution" />
        <cc:permits
           rdf:resource="http://creativecommons.org/ns#DerivativeWorks" />
      </cc:License>
    </rdf:RDF>
  </metadata>
</svg>
