<?xml version="1.0" encoding="UTF-8" standalone="no"?>
<!-- Created with Inkscape (http://www.inkscape.org/) -->
<svg
   xmlns:svg="http://www.w3.org/2000/svg"
   xmlns="http://www.w3.org/2000/svg"
   version="1.0"
   width="48"
   height="48"
   viewBox="0 0 151.127 180.225"
   id="Layer_1"
   xml:space="preserve"
   style="overflow:visible"><defs
   id="defs2572" />
<g
   id="Layer_1_2_">
</g>
<g
   id="Layer_2">
	<g
   id="g2538">
		
			<linearGradient
   x1="69.4375"
   y1="171.4016"
   x2="133.43671"
   y2="66.069901"
   id="XMLID_4_"
   gradientUnits="userSpaceOnUse"
   gradientTransform="matrix(1,0,0,-1,0,178.2251)">
			<stop
   id="stop2541"
   style="stop-color:#ddedb6;stop-opacity:1"
   offset="0" />
			<stop
   id="stop2543"
   style="stop-color:#1b2600;stop-opacity:1"
   offset="1" />
		</linearGradient>
		<polygon
   points="85.97,105.295 64.872,68.752 85.97,32.212 128.162,32.212 149.259,68.752 128.162,105.295 85.97,105.295 "
   id="polygon2545"
   style="fill:url(#XMLID_4_);stroke:#1b2600;stroke-width:3.23709989" />
		
			<linearGradient
   x1="6.8662"
   y1="135.8284"
   x2="68.199997"
   y2="31.8272"
   id="XMLID_5_"
   gradientUnits="userSpaceOnUse"
   gradientTransform="matrix(1,0,0,-1,0,178.2251)">
			<stop
   id="stop2548"
   style="stop-color:#ddedb6;stop-opacity:1"
   offset="0" />
			<stop
   id="stop2550"
   style="stop-color:#1b2600;stop-opacity:1"
   offset="1" />
		</linearGradient>
		<polygon
   points="22.966,142.011 1.868,105.469 22.966,68.93 65.159,68.93 86.256,105.469 65.159,142.011 22.966,142.011 "
   id="polygon2552"
   style="fill:url(#XMLID_5_);stroke:#1b2600;stroke-width:3.23709989" />
		
			<linearGradient
   x1="73.212898"
   y1="96.173103"
   x2="131.87939"
   y2="-7.8260002"
   id="XMLID_6_"
   gradientUnits="userSpaceOnUse"
   gradientTransform="matrix(1,0,0,-1,0,178.2251)">
			<stop
   id="stop2555"
   style="stop-color:#ddedb6;stop-opacity:1"
   offset="0" />
			<stop
   id="stop2557"
   style="stop-color:#1b2600;stop-opacity:1"
   offset="1" />
		</linearGradient>
		<polygon
   points="85.97,178.606 64.872,142.065 85.97,105.524 128.162,105.524 149.259,142.065 128.162,178.606 85.97,178.606 "
   id="polygon2559"
   style="fill:url(#XMLID_6_);stroke:#1b2600;stroke-width:3.23709989" />
	</g>
</g>
<g
   id="Layer_4">
</g>
<g
   id="Layer_3">
	<path
   d="M 32.156,47.938 L 92.724,152.99 L 86.046,159.932 L 88.566,165.565 L 147.449,148.11 L 145.226,140.217 L 137.035,140.147 L 137.109,14.33 L 146.765,8.986 L 144.624,1.698 L 112.083,11.128 L 114.407,18.965 L 124.731,17.63 C 124.731,17.63 124.731,108.876 124.731,121.786 C 124.731,134.693 123.218,137.719 123.218,137.719 C 122.206,136.645 120.272,134.756 114.114,124.139 C 110.056,117.141 64.202,37.529 64.202,37.529 L 72.803,30.689 L 70.354,23.564 L 15.387,42.472 L 18.034,50.202 L 32.156,47.938 z"
   id="path2563"
   style="fill:#453500" />
	<path
   d="M 27.49,46.604 L 88.055,151.658 L 81.378,158.6 L 83.899,164.233 L 142.78,146.778 L 140.557,138.885 L 132.367,138.815 L 132.442,13.518 L 143.546,7.847 L 141.235,0 L 107.417,9.796 L 109.741,17.633 L 120.065,16.298 C 120.065,16.298 120.065,107.544 120.065,120.454 C 120.065,133.361 118.553,136.386 118.553,136.386 C 117.54,135.312 115.606,133.423 109.449,122.806 C 105.391,115.808 59.621,36.407 59.621,36.407 L 68.883,29.777 L 66.237,22.049 L 10.72,41.139 L 13.367,48.869 L 27.49,46.604 z"
   id="path2565"
   style="fill:#ffcc00" />
	<polygon
   points="107.362,139.497 96.334,146.543 37.127,44.809 43.028,41.464 50.688,40.278 107.362,139.497 "
   id="polygon2567"
   style="fill:#ecb500" />
	<polygon
   points="112.569,141.029 101.541,148.075 42.334,46.341 48.235,42.996 55.896,41.811 112.569,141.029 "
   id="polygon2569"
   style="fill:#ffcc00" />
</g>
</svg>